<svg xmlns="http://www.w3.org/2000/svg" width="650" height="120" aria-labelledby="87qhsz3360uj6xpqxk4hl975pio2u7p l1bc0610ek2gqye5ebsbttyeav9mn9q"><g fill="#FFF" fill-rule="evenodd"><path d="M241.322 49.168h10.537v63.217l7.023 7.023 7.025-7.023 10.535-10.537-3.512-3.512-7.023 7.024V49.167l14.047-14.047h-14.047V24.585zM495.25 24.584v14.048l-10.535 10.536h10.536v63.217l7.024 7.023 7.024-7.023V49.168l14.048-14.047h-14.048V10.535z"/><path d="M519.835 0l-10.536 10.536 10.536 10.535 10.535-10.535zM331.43 17.56l7.024 7.024v80.776l14.048 14.049 10.537-10.537-10.537-10.536V17.56L341.966 7.023z"/><path d="M352.503 45.656l10.535 10.536v52.68l14.048-14.048V49.168L363.038 35.12zM44.282 12.395l7.38 7.38v18.36l-18.36 18.358V12.395l-11.07-11.07-.046.045-.045-.046L0 23.465l3.781 3.782 11.07-11.07 3.691 3.69v92.16l7.38 7.382 7.38-7.382V72.396l18.36-18.36V104.649l14.76 14.76 7.38-7.38 3.69-3.69 7.38-7.38-3.689-3.69-7.38 7.38-7.382-7.38V12.394l-11.07-11.07zM611.067 49.168h10.536v63.217l7.024 7.023 7.024-7.023 10.536-10.537-3.512-3.512-7.024 7.024V49.167l14.048-14.047h-14.048V24.585zM285.794 59.704v45.656l14.048 14.049 10.536-10.537-10.536-10.536v-52.68z"/><path d="M299.842 45.656l10.537 10.536v52.68l14.048-14.048V49.168L310.379 35.12zM403.978 45.656L389.93 59.704v45.656l14.048 14.048 7.025-7.023 3.511-3.513 10.537-10.536-3.513-3.512-10.535 10.536-7.025-7.024V73.578l24.498-24.497-13.962-13.96-10.536 10.535zm0 0l10.45 10.45-10.45 10.448V45.656zM93.791 59.704v45.656l14.048 14.049 10.536-10.537-10.536-10.536v-52.68z"/><path d="M107.84 45.656l10.535 10.536v52.68l10.536 10.536 10.536-10.536-7.024-7.024v-52.68L118.375 35.12zM148.887 59.704v45.656l14.047 14.049 7.024-7.024 3.512-3.513 10.536-10.536-3.512-3.512-10.536 10.536-7.024-7.024v-52.68zM162.934 45.557l10.536 10.536 10.535-10.536L173.47 35.02zM220.27 35.12l-10.536 10.537L220.27 56.19l10.537-10.534zM209.734 66.728l7.024 7.025v38.631l7.024 7.024 7.025-7.024V66.728L220.27 56.192zM188.662 17.56l7.024 7.024v87.8l7.024 7.025 7.024-7.024V17.56L199.198 7.023zM542.03 45.656l-14.047 14.048v45.656l14.048 14.048 7.024-7.023 3.512-3.513 10.536-10.536-3.512-3.512-10.536 10.536-7.024-7.024V73.578l24.497-24.497-13.96-13.96-10.537 10.535zm0 0l10.45 10.45-10.45 10.448V45.656zM456.639 45.656l10.535 10.536 10.537-10.536-10.537-10.536zM435.566 45.656l7.024 7.023v59.706l7.025 7.023 7.024-7.023V45.656l-10.537-10.535zM575.947 108.872l10.536 10.537 10.535-10.537-10.535-10.536zM607.555 45.656L597.018 35.12l-10.535 10.536 10.535 10.536z"/><path d="M575.947 56.192V70.24l21.071 21.072v17.56l10.537-10.536v-17.56l-1.756-1.755-8.78-8.781-10.536-10.536V45.656z"/></g></svg>